<svg xmlns="http://www.w3.org/2000/svg" xmlns:xlink="http://www.w3.org/1999/xlink" version="1.1" width="256" height="256" viewBox="0 0 256 256" xml:space="preserve">

<defs>
</defs>
<g style="stroke: none; stroke-width: 0; stroke-dasharray: none; stroke-linecap: butt; stroke-linejoin: miter; stroke-miterlimit: 10; fill: none; fill-rule: nonzero; opacity: 1;" transform="translate(1.4065934065934016 1.4065934065934016) scale(2.81 2.81)" >
	<circle cx="45" cy="45" r="45" style="stroke: none; stroke-width: 1; stroke-dasharray: none; stroke-linecap: butt; stroke-linejoin: miter; stroke-miterlimit: 10; fill: rgb(255,200,67); fill-rule: nonzero; opacity: 1;" transform="  matrix(1 0 0 1 0 0) "/>
	<circle cx="45" cy="45" r="37.5" style="stroke: none; stroke-width: 1; stroke-dasharray: none; stroke-linecap: butt; stroke-linejoin: miter; stroke-miterlimit: 10; fill: rgb(211,135,0); fill-rule: nonzero; opacity: 1;" transform="  matrix(1 0 0 1 0 0) "/>
	<path d="M 44.336 20.148 c 1.179 -0.615 2.619 0.812 1.992 1.99 c -0.364 0.96 -1.744 1.216 -2.449 0.484 C 43.133 21.919 43.377 20.53 44.336 20.148 M 31.651 21.515 c 0.716 -0.295 1.623 0.361 1.55 1.142 c 0.076 0.848 -0.96 1.472 -1.691 1.069 C 30.543 23.352 30.654 21.781 31.651 21.515 M 57.632 23.75 c -1.12 -0.135 -1.297 -1.896 -0.219 -2.25 c 0.836 -0.408 1.603 0.357 1.725 1.149 C 58.963 23.326 58.397 23.946 57.632 23.75 M 34.537 26.914 c 1.198 -0.758 2.907 0.371 2.723 1.762 c -0.062 1.405 -1.928 2.219 -2.981 1.269 C 33.261 29.199 33.415 27.488 34.537 26.914 M 52.822 27.718 c 0.534 -1.377 2.7 -1.419 3.308 -0.078 c 0.601 1.043 -0.138 2.335 -1.209 2.69 C 53.502 30.595 52.154 29.061 52.822 27.718 M 42.809 30.252 c -0.012 -1.184 1.067 -2.066 2.192 -2.146 c 0.746 0.15 1.56 0.468 1.88 1.221 c 0.597 1.039 0.067 2.469 -1.011 2.946 c -0.493 0.276 -1.076 0.173 -1.613 0.14 C 43.435 32.009 42.744 31.219 42.809 30.252 M 23.944 31.977 c 1.094 -0.673 2.57 0.555 2.156 1.744 c -0.228 1.028 -1.61 1.446 -2.4 0.79 C 22.856 33.895 22.99 32.417 23.944 31.977 M 64.454 31.975 c 0.928 -0.721 2.46 0.106 2.35 1.278 c 0.062 1.069 -1.262 1.875 -2.184 1.324 C 63.605 34.121 63.501 32.559 64.454 31.975 M 48.114 34.103 c 1.532 -0.55 3.351 0.108 4.225 1.474 c 1.152 1.67 0.539 4.212 -1.248 5.17 c -1.852 1.133 -4.556 0.173 -5.24 -1.896 C 45.073 37 46.204 34.683 48.114 34.103 M 39.126 34.285 c 1.698 -0.801 3.983 -0.129 4.803 1.608 c 0.965 1.69 0.219 4.044 -1.506 4.917 c -1.728 0.981 -4.165 0.237 -5.001 -1.578 C 36.484 37.477 37.316 35.093 39.126 34.285 M 30.126 37.361 c 0.129 -1.094 1.161 -1.806 2.202 -1.879 c 1.122 0.135 2.018 1.006 2.14 2.142 c -0.074 1.124 -0.942 2.222 -2.133 2.216 C 31.024 39.952 29.876 38.649 30.126 37.361 M 56.708 35.72 c 1.345 -0.783 3.213 0.357 3.153 1.902 c 0.092 1.637 -1.975 2.791 -3.315 1.831 C 55.155 38.653 55.264 36.401 56.708 35.72 M 35.468 41.491 c 1.573 -0.433 3.372 0.309 4.144 1.755 c 0.845 1.456 0.5 3.478 -0.813 4.545 c -1.684 1.566 -4.789 0.937 -5.685 -1.2 C 32.084 44.632 33.335 42.007 35.468 41.491 M 52.516 41.483 c 1.529 -0.438 3.326 0.152 4.149 1.545 c 1.087 1.594 0.568 3.971 -1.05 4.998 c -1.695 1.193 -4.321 0.567 -5.254 -1.299 C 49.229 44.798 50.367 42.071 52.516 41.483 M 25.349 43.301 c 1.359 -0.514 2.866 0.986 2.315 2.333 c -0.336 1.228 -2.066 1.681 -2.96 0.776 C 23.658 45.561 24.045 43.67 25.349 43.301 M 62.186 45.256 c -0.039 -1.126 0.785 -2.123 1.939 -2.186 c 0.931 0.147 1.836 0.898 1.762 1.912 c 0.085 1.338 -1.527 2.248 -2.667 1.619 C 62.685 46.33 62.411 45.782 62.186 45.256 M 18.666 43.962 c 0.818 -0.357 1.829 0.352 1.642 1.26 c -0.044 1.028 -1.562 1.423 -2.119 0.564 C 17.697 45.19 17.991 44.27 18.666 43.962 z M 70.22 43.942 c 0.576 -0.41 1.499 -0.115 1.728 0.557 c 0.387 0.735 -0.323 1.741 -1.149 1.617 C 69.638 46.222 69.262 44.453 70.22 43.942 M 39.909 48.877 c 2.152 -0.56 4.464 1.235 4.478 3.45 c 0.14 2.239 -2.137 4.224 -4.34 3.707 c -1.702 -0.274 -3.038 -1.914 -2.983 -3.634 C 37.059 50.754 38.301 49.225 39.909 48.877 M 48.43 48.872 c 2.184 -0.61 4.565 1.216 4.531 3.482 c 0.115 2.197 -2.091 4.116 -4.248 3.68 c -2.029 -0.262 -3.527 -2.492 -2.96 -4.461 C 46.039 50.261 47.135 49.194 48.43 48.872 M 32.001 50.236 c 1.511 -0.258 2.928 1.428 2.315 2.863 c -0.447 1.529 -2.672 1.944 -3.656 0.695 C 29.506 52.594 30.368 50.402 32.001 50.236 M 56.989 50.303 c 1.347 -0.564 3.001 0.601 2.898 2.064 c 0.054 1.61 -1.988 2.72 -3.305 1.78 C 55.089 53.304 55.361 50.821 56.989 50.303 M 63.973 57.309 c -0.528 -0.983 0.431 -2.287 1.523 -2.105 c 0.544 -0.009 0.924 0.419 1.272 0.778 c 0.071 0.583 0.191 1.278 -0.292 1.727 C 65.818 58.541 64.33 58.304 63.973 57.309 M 23.939 55.478 c 1.021 -0.679 2.489 0.334 2.26 1.527 c -0.122 1.055 -1.451 1.658 -2.327 1.06 C 22.932 57.521 22.967 55.973 23.939 55.478 M 44.101 57.686 c 1.336 -0.59 3.038 0.574 2.912 2.045 c 0.099 1.626 -2.006 2.752 -3.313 1.776 C 42.249 60.669 42.491 58.202 44.101 57.686 M 34.763 59.865 c 1.138 -0.599 2.665 0.435 2.561 1.709 c 0.035 1.046 -0.986 1.937 -2.018 1.782 c -0.855 -0.018 -1.412 -0.785 -1.686 -1.513 C 33.634 61.049 33.961 60.164 34.763 59.865 M 53.679 59.883 c 1.17 -0.723 2.833 0.315 2.723 1.677 c 0.03 1.423 -1.85 2.335 -2.939 1.4 C 52.408 62.228 52.536 60.466 53.679 59.883 M 56.968 68.016 c -0.521 -0.788 0.092 -1.736 0.938 -1.916 c 0.68 0.138 1.398 0.649 1.255 1.437 C 59.062 68.603 57.503 68.93 56.968 68.016 M 30.856 67.332 c 0.207 -0.624 0.709 -1.245 1.444 -1.082 c 1.071 0.076 1.389 1.69 0.452 2.188 C 31.909 69.006 30.931 68.228 30.856 67.332 M 43.454 68.048 c 0.205 -0.923 1.4 -1.373 2.188 -0.882 c 0.521 0.223 0.673 0.806 0.806 1.301 c -0.071 0.258 -0.135 0.516 -0.198 0.774 c -0.323 0.382 -0.737 0.765 -1.274 0.751 C 43.979 70.108 43.079 68.981 43.454 68.048" style="stroke: none; stroke-width: 1; stroke-dasharray: none; stroke-linecap: butt; stroke-linejoin: miter; stroke-miterlimit: 10; fill: rgb(255,200,67); fill-rule: nonzero; opacity: 1;" transform=" matrix(1 0 0 1 0 0) " stroke-linecap="round" />
</g>
</svg>